# AST/ASF file generated using VICON BodyLanguage
# -----------------------------------------------
:version 1.10
:name VICON
:units
  mass 1.0
  length 0.45
  angle deg
:documentation
   .ast/.asf automatically generated from VICON data using
   VICON BodyBuilder and BodyLanguage model FoxedUp or BRILLIANT.MOD
:root
   order TX TY TZ RX RY RZ
   axis XYZ
   position 0 0 0  
   orientation 0 0 0 
:bonedata
  begin
     id 1 
     name lhipjoint
     direction 0.57768 -0.667037 0.470475 
     length 2.36008 
     axis 0 0 0  XYZ
  end
  begin
     id 2 
     name lfemur
     direction 0.34202 -0.939693 0  
     length 6.97235  
     axis 0 0 20  XYZ
    dof rx ry rz
    limits (-160.0 20.0)
           (-70.0 70.0)
           (-60.0 70.0)
  end
  begin
     id 3 
     name ltibia
     direction 0.34202 -0.939693 0   
     length 6.93428   
     axis 0 0 20   XYZ
    dof rx
    limits (-10.0 170.0)
  end
  begin
     id 4 
     name lfoot
     direction 0.133018 -0.365463 0.921272   
     length 2.18603   
     axis -90 7.62852e-016 20   XYZ
    dof rx rz
    limits (-45.0 90.0)
           (-70.0 20.0)
  end
  begin
     id 5 
     name ltoes
     direction 1.53519e-011 -4.22055e-011 1   
     length 1.07924   
     axis -90 7.62852e-016 20   XYZ
    dof rx
    limits (-90.0 20.0)
  end
  begin
     id 6 
     name rhipjoint
     direction -0.577712 -0.667019 0.470462   
     length 2.36015  
     axis 0 0 0  XYZ 
  end
  begin
     id 7 
     name rfemur
     direction -0.34202 -0.939693 0   
     length 6.71195   
     axis 0 0 -20   XYZ
    dof rx ry rz
    limits (-160.0 20.0)
           (-70.0 70.0)
           (-70.0 60.0)
  end
  begin
     id 8 
     name rtibia
     direction -0.34202 -0.939693 0   
     length 7.04592   
     axis 0 0 -20   XYZ
    dof rx
    limits (-10.0 170.0)
 end
 begin
     id 9 
     name rfoot
     direction -0.113796 -0.312651 0.943027   
     length 2.03846  
     axis -90 -7.62852e-016 -20   XYZ
    dof rx rz
    limits (-45.0 90.0)
           (-20.0 70.0)
  end
  begin
     id 10 
     name rtoes
     direction -1.53586e-011 -4.218e-011 1   
     length 1.01562   
     axis -90 -7.62852e-016 -20   XYZ
    dof rx
    limits (-90.0 20.0)
  end
  begin
     id 11 
     name lowerback
     direction -0.0417299 0.991937 -0.119667   
     length 2.05257   
     axis 0 0 0   XYZ
    dof rx ry rz
    limits (-20.0 45.0)
           (-30.0 30.0)
           (-30.0 30.0)
  end
  begin
     id 12 
     name upperback
     direction -0.00017666 0.999999 0.00105178   
     length 2.05693   
     axis 0 0 0   XYZ
    dof rx ry rz
    limits (-20.0 45.0)
           (-30.0 30.0)
           (-30.0 30.0)
  end
  begin
     id 13 
     name thorax
     direction 0.0185169 0.998203 0.0569866   
     length 2.0932   
     axis 0 0 0   XYZ
    dof rx ry rz
    limits (-20.0 45.0)
           (-30.0 30.0)
           (-30.0 30.0)
  end
  begin
     id 14 
     name lowerneck
     direction -0.0212406 0.982645 0.184277   
     length 1.72509   
     axis 0 0 0   XYZ
    dof rx ry rz
    limits (-20.0 45.0)
           (-30.0 30.0)
           (-30.0 30.0)
  end
  begin
     id 15 
     name upperneck
     direction 0.00528579 0.965323 -0.261004   
     length 1.76294   
     axis 0 0 0   XYZ
    dof rx ry rz
    limits (-20.0 45.0)
           (-30.0 30.0)
           (-30.0 30.0)
  end
  begin
     id 16
     name head
     direction 0.00695421 0.994078 -0.108445  
     length 1.78678  
     axis 0 0 0   XYZ
    dof rx ry rz
    limits (-20.0 45.0)
           (-30.0 30.0)
           (-30.0 30.0)
  end
  begin
     id 17 
     name lclavicle
     direction 0.97277 0.211305 -0.095232  
     length 3.84823  
     axis 0 0 0   XYZ
    dof ry rz
    limits (-20.0 10.0)
           (0.0 20.0)
  end
  begin
     id 18 
     name lhumerus
     direction 1 -4.48957e-011 -1.98313e-027   
     length 4.97185   
     axis 180 -30 -90   XYZ
    dof rx ry rz
    limits (-60.0 90.0)
           (-90.0 90.0)
           (-90.0 90.0)
  end
  begin
     id 19
     name lradius
     direction 1 -4.4898e-011 7.31063e-027   
     length 3.35811   
     axis 180 -30 -90   XYZ
    dof rx
    limits (-10.0 170.0)
  end
  begin
     id 20
     name lwrist
     direction 1 -4.48938e-011 9.95048e-027   
     length 1.67905   
     axis -8.75986e-015 90 90   XYZ
    dof ry
    limits (-180.0 0.0)
 end
  begin
     id 21 
     name lhand
     direction 1 -4.4901e-011 1.9901e-026   
     length 0.622776   
     axis -1.26985e-014 90 90   XYZ
    dof rx rz
    limits (-90.0 90.0)
           (-45.0 45.0)
  end
  begin
     id 22 
     name lfingers
     direction 1 -4.48961e-011 3.98019e-026   
     length 0.502098   
     axis -2.5397e-014 90 90   XYZ
    dof rx
    limits (0.0 90.0)
  end
  begin
     id 23
     name lthumb
     direction 0.707107 -6.34933e-011 0.707107   
     length 0.720915   
     axis -90 45 2.85299e-015   XYZ
    dof rx rz
    limits (-45.0 45.0)
           (-45.0 45.0)
  end
  begin
     id 24 
     name rclavicle
     direction -0.990867 0.133739 -0.0172226   
     length 3.78845  
     axis 0 0 0   XYZ 
    dof ry rz
    limits (-10.0 20.0)
           (-20.0 0.0)
  end
  begin
     id 25 
     name rhumerus
     direction -1 -4.48972e-011 -1.99267e-027  
     length 4.96493   
     axis 180 30 90   XYZ
    dof rx ry rz
    limits (-90.0 60.0)
           (-90.0 90.0)
           (-90.0 90.0)
  end
  begin
     id 26 
     name rradius
     direction -1 -4.48969e-011 8.96093e-027   
     length 3.34929   
     axis 180 30 90   XYZ
    dof rx
    limits (-10.0 170.0)
  end
  begin
     id 27 
     name rwrist
     direction -1 -4.48953e-011 9.95048e-027   
     length 1.67464   
     axis -8.75986e-015 -90 -90   XYZ
    dof ry
    limits (-180.0 0.0)
  end
  begin
     id 28
     name rhand
     direction -1 -4.49001e-011 1.9901e-026   
     length 0.638041   
     axis -1.26985e-014 -90 -90   XYZ
    dof rx rz
    limits (-90.0 90.0)
           (-45.0 45.0)
  end
  begin
     id 29
     name rfingers
     direction -1 -4.48967e-011 3.98019e-026   
     length 0.514405   
     axis -2.5397e-014 -90 -90   XYZ
    dof rx
    limits (0.0 90.0)
  end
  begin
     id 30
     name rthumb
     direction -0.707107 -6.34904e-011 0.707107   
     length 0.738586   
     axis -90 -45 -2.85299e-015   XYZ
    dof rx rz
    limits (-45.0 45.0)
           (-45.0 45.0)
  end
:hierarchy
  begin
    root lhipjoint rhipjoint lowerback
    lhipjoint lfemur
    lfemur ltibia
    ltibia lfoot
    lfoot ltoes
    rhipjoint rfemur
    rfemur rtibia
    rtibia rfoot
    rfoot rtoes
    lowerback upperback
    upperback thorax
    thorax lowerneck lclavicle rclavicle
    lowerneck upperneck
    upperneck head
    lclavicle lhumerus
    lhumerus lradius
    lradius lwrist
    lwrist lhand lthumb
    lhand lfingers
    rclavicle rhumerus
    rhumerus rradius
    rradius rwrist
    rwrist rhand rthumb
    rhand rfingers
  end

#!OML:ASF E:\Mandelcareful walks\Project 1\Capture day 1\Session 1\Subject1.ASF
:FULLY-SPECIFIED
:DEGREES
170
root -3.41238 12.8789 -1.45193 34.0931 66.7263 16.8749
lowerback 40.7887 4.31213 -9.42795
upperback 10.1262 2.61792 0.449242
thorax -8.44589 1.62102 4.18557
lowerneck -27.8092 -9.43076 -11.0858
upperneck 22.7681 -11.052 8.58522
head 13.4151 -4.6421 2.96547
rclavicle -1.03368e-014 -7.43455e-014
rhumerus 7.94468 4.51908 -69.7877
rradius 70.2119
rwrist -38.5933
rhand -17.7006 -35.4393
rfingers 7.12502
rthumb 8.55927 -65.2458
lclavicle -1.03368e-014 -7.43455e-014
lhumerus -4.7271 -6.69791 62.79
lradius 61.7297
lwrist 30.6851
lhand -27.7216 -15.3756
lfingers 7.12502
lthumb -1.11704 14.6012
rfemur -75.0124 -14.0249 0.81876
rtibia 88.6064
rfoot -26.8653 4.17116
rtoes -12.7017
lfemur -71.4013 34.5501 -23.0929
ltibia 89.8269
lfoot -27.171 6.86748
ltoes -17.6278
171
root -3.39409 12.859 -1.41888 34.7872 66.2615 17.723
lowerback 40.869 4.18757 -9.23684
upperback 10.1971 2.55591 0.570799
thorax -8.3918 1.58776 4.24474
lowerneck -27.8673 -9.52262 -11.3583
upperneck 22.8251 -10.996 8.37988
head 13.4448 -4.66769 2.93792
rclavicle -5.00937e-014 0
rhumerus 8.6018 4.33046 -69.3914
rradius 69.6761
rwrist -39.097
rhand -18.4384 -35.1855
rfingers 7.12502
rthumb 7.84717 -65.0198
lclavicle -5.00937e-014 0
lhumerus -4.81671 -6.35363 63.0705
lradius 61.7979
lwrist 30.4832
lhand -27.4609 -15.4931
lfingers 7.12502
lthumb -0.865206 14.4849
rfemur -75.1585 -14.0035 0.34854
rtibia 89.1051
rfoot -27.0824 4.36266
rtoes -12.0556
lfemur -71.1076 34.647 -23.3375
ltibia 89.9666
lfoot -27.2553 7.12359
ltoes -17.9255
172
root -3.38325 12.8315 -1.38104 35.3822 66.0462 18.4207
lowerback 41.0814 4.11397 -8.30591
upperback 10.3036 2.79948 0.288254
thorax -8.34299 1.70827 3.36111
lowerneck -28.361 -9.82653 -10.486
upperneck 22.9292 -11.6312 7.98069
head 13.5599 -4.90382 2.49052
rclavicle 6.36111e-015 -6.36111e-015
rhumerus 9.13036 2.53042 -69.6465
rradius 68.823
rwrist -39.3281
rhand -18.4892 -34.1584
rfingers 7.12502
rthumb 7.79817 -63.9946
lclavicle 6.36111e-015 -6.36111e-015
lhumerus -3.94688 -7.1988 62.8338
lradius 61.7589
lwrist 30.5374
lhand -27.4983 -15.6833
lfingers 7.12502
lthumb -0.901349 14.2946
rfemur -75.3612 -14.089 0.103417
rtibia 89.6666
rfoot -27.3076 4.38988
rtoes -11.5023
lfemur -70.995 34.6201 -23.4163
ltibia 90.1313
lfoot -27.2127 7.33666
ltoes -18.3675
173
root -3.37971 12.7976 -1.33309 35.7623 65.8713 18.8102
lowerback 40.9807 3.97059 -8.64769
upperback 10.324 2.56441 0.872333
thorax -8.3055 1.58195 4.26614
lowerneck -27.9632 -9.64144 -11.282
upperneck 22.6641 -11.0057 7.84883
head 13.3504 -4.73764 2.70852
rclavicle -2.62396e-014 -5.76476e-014
rhumerus 10.5164 3.19343 -69.1927
rradius 67.6751
rwrist -40.0128
rhand -18.5017 -33.9874
rfingers 7.12502
rthumb 7.78615 -63.8241
lclavicle -2.62396e-014 -5.76476e-014
lhumerus -4.95298 -5.83324 63.5619
lradius 61.8801
lwrist 30.3445
lhand -27.7581 -15.8897
lfingers 7.12502
lthumb -1.15232 14.087
rfemur -75.7495 -14.0139 0.07479
rtibia 90.2674
rfoot -27.4921 4.10155
rtoes -11.8096
lfemur -71.0564 34.7697 -23.4206
ltibia 90.2929
lfoot -27.053 7.51957
ltoes -19.0289
174
root -3.38175 12.7702 -1.28064 35.9687 65.7016 19.084
lowerback 41.1176 3.99044 -9.1612
upperback 10.1797 2.43123 1.55818
thorax -8.54027 1.51041 5.31868
lowerneck -27.0243 -9.4216 -12.2708
upperneck 22.109 -10.3661 7.89198
head 12.9428 -4.56941 3.03606
rclavicle 7.95139e-015 -3.65764e-014
rhumerus 11.5187 4.06386 -68.5571
rradius 66.7431
rwrist -40.8517
rhand -18.8772 -34.7471
rfingers 7.12502
rthumb 7.42371 -64.5969
lclavicle 7.95139e-015 -3.65764e-014
lhumerus -6.33402 -4.68606 64.3824
lradius 62.0797
lwrist 30.0847
lhand -27.9924 -15.9835
lfingers 7.12502
lthumb -1.37854 13.9918
rfemur -76.0318 -13.7511 0.0601449
rtibia 90.8294
rfoot -27.6359 3.79031
rtoes -12.0713
lfemur -70.9472 34.961 -23.2614
ltibia 90.4275
lfoot -26.9887 7.40414
ltoes -18.8153
175
root -3.38022 12.7416 -1.23208 36.554 65.6055 19.6848
lowerback 41.2531 3.91808 -9.48224
upperback 10.1751 2.26684 2.07297
thorax -8.59843 1.42656 6.10834
lowerneck -27.5503 -9.34854 -12.7112
upperneck 22.587 -9.87108 7.37267
head 13.1697 -4.44623 2.9983
rclavicle -1.66979e-014 -8.74653e-015
rhumerus 12.6959 4.71123 -67.934
rradius 65.9756
rwrist -41.5741
rhand -19.7307 -36.7822
rfingers 7.12502
rthumb 6.59979 -66.6594
lclavicle -1.66979e-014 -8.74653e-015
lhumerus -7.19191 -3.64286 64.969
lradius 62.2331
lwrist 29.8533
lhand -28.1103 -15.4829
lfingers 7.12502
lthumb -1.49248 14.4916
rfemur -76.3107 -13.6878 -0.0945487
rtibia 91.4
rfoot -27.8354 3.70815
rtoes -11.7853
lfemur -70.9025 34.9093 -23.1981
ltibia 90.5911
lfoot -27.0455 7.23974
ltoes -18.1494
